<svg width="129" height="28" viewBox="0 0 129 28" fill="none" xmlns="http://www.w3.org/2000/svg">
<path d="M16.0356 5.72205e-05V27.9999H0V5.72205e-05H16.0356ZM34.2599 9.80966C34.2599 11.8368 33.7552 13.5946 32.7516 15.083C31.7536 16.5743 30.4665 17.7084 28.8958 18.4852C27.3223 19.2649 25.7091 19.6533 24.0534 19.6533H18.3717V5.72205e-05H23.4977C25.4766 5.72205e-05 27.2883 0.425328 28.9298 1.2702C30.577 2.1094 31.8784 3.27465 32.831 4.7631C33.7836 6.25438 34.2599 7.93563 34.2599 9.80966Z" fill="white"/>
<path d="M52.517 6.48499e-05V27.9999H36.6289V6.48499e-05H52.517Z" fill="white"/>
<path d="M84.641 12.2592L72.3024 0.476361H72.2003V27.4102H72.3024L84.641 15.6274V27.9999H70.1477C67.7577 27.9999 65.4811 27.3734 63.3207 26.1174C61.166 24.8643 59.4223 23.1547 58.0927 20.9915C56.7601 18.8311 56.0967 16.4552 56.0967 13.8696C56.0967 11.8963 56.505 10.0421 57.3215 8.30136C58.138 6.55491 59.3004 4.98708 60.8144 3.59502C61.9626 2.54602 63.4511 1.68413 65.2826 1.00937C67.1113 0.33744 68.9796 5.72205e-05 70.8848 5.72205e-05H84.641V12.2592Z" fill="white"/>
<path d="M103.845 5.72205e-05V15.8882L113.689 7.54154L128.08 27.9999H111.171L103.845 16.4326V27.9999H87.9681V5.72205e-05H103.845ZM122.149 5.72205e-05V0.294912L113.689 7.50752L108.495 5.72205e-05H122.149Z" fill="white"/>
</svg>
