<svg width="76" height="58" viewBox="0 0 76 58" fill="none" xmlns="http://www.w3.org/2000/svg">
<g clip-path="url(#clip0_91_293)">
<path d="M52.549 21.8344C52.3533 21.2239 51.6281 21.0279 51.16 21.467C49.1147 23.3833 47.1644 25.3976 45.304 27.4908C45.1335 26.8461 44.9565 26.2031 44.754 25.5671C44.1588 23.6795 43.2619 21.8562 41.6275 20.6685C39.9026 19.4123 37.8536 19.3193 35.8172 19.642C35.1596 19.7473 34.5071 19.8719 33.8541 20.0069C33.8852 19.9573 33.9182 19.914 33.9494 19.8643C34.6152 18.6709 34.495 17.1706 34.0989 15.9064C33.7121 14.6637 33.0154 13.5183 32.0837 12.6083C29.9385 10.5067 26.6037 9.8569 23.8295 11.0043C23.7553 11.0346 23.687 11.0737 23.6235 11.1183C22.2402 11.3438 21.726 12.8194 21.388 14.0584C21.1101 15.075 20.8925 16.1372 20.8605 17.2009C20.0102 15.7533 18.7567 14.528 17.3274 13.7316C17.0764 13.5897 16.8347 13.5966 16.6282 13.6832C15.8124 13.4566 14.9319 13.4606 14.1064 13.6559C12.7034 13.9864 11.4961 14.8896 10.4858 15.8874C9.49216 16.8703 8.54361 17.9442 8.36934 19.383C8.28238 20.0904 8.37898 20.8169 8.50556 21.5147C8.62895 22.2134 8.8601 22.9173 9.26348 23.5095C10.6094 25.4968 12.9586 26.0793 15.2148 25.9103C13.5045 26.475 11.778 26.9925 10.0686 27.5604C9.14323 27.8685 8.19497 28.2825 7.5449 29.0387C6.94667 29.7328 6.61506 30.5887 6.48119 31.4908C6.16923 33.5888 6.47173 35.8027 6.77655 37.8855C7.10455 40.1303 7.56563 42.3599 8.0561 44.5712C8.55434 46.8113 9.10142 49.0418 9.72117 51.2491C9.98233 52.1786 10.2966 53.1145 10.8986 53.8833C11.4841 54.6291 12.3072 55.1114 13.2248 55.3208C14.1464 55.5326 15.099 55.516 16.0383 55.4756C17.1397 55.4258 18.2363 55.3326 19.3321 55.1983C21.5406 54.9288 23.7279 54.5171 25.8941 54.015C30.1898 53.0137 34.3996 51.6816 38.6612 50.5418C39.7068 50.2596 40.7535 49.9943 41.8077 49.7441C42.8852 49.4911 43.9754 49.2725 45.0116 48.8794C46.8026 48.2071 48.5432 46.9538 49.0573 45.0074C49.3415 43.9376 49.1539 42.8232 49.0104 41.7451C48.8621 40.6236 48.6801 39.5043 48.4629 38.3945C48.3756 37.9439 48.2755 37.4966 48.1754 37.0494C51.2698 36.9359 54.3847 37.4699 57.2394 38.6926C58.0309 39.0322 58.6965 38.3337 58.3659 37.5535C56.1908 32.405 54.2533 27.158 52.5458 21.8352L52.549 21.8344ZM22.7095 15.6503C22.8358 15.0251 23.0007 14.4033 23.19 13.7955C23.3088 13.4094 23.493 12.7446 23.9944 12.7467C24.2652 12.7458 24.4664 12.64 24.6016 12.4798C26.4213 11.8374 28.4463 12.0195 30.0787 13.0978C31.6889 14.1581 32.9208 16.2312 32.7558 18.2002C32.5888 20.1869 29.991 20.6028 28.4221 20.7891C27.4417 20.9059 26.4176 20.9245 25.4469 20.7088C24.5537 20.5135 23.4585 20.1286 22.9243 19.3312C22.2502 18.3207 22.4889 16.7648 22.7127 15.6494L22.7095 15.6503ZM22.0134 20.9516C22.0115 20.8937 22.0041 20.8408 21.999 20.7837C22.3955 21.1853 22.882 21.5007 23.3864 21.7426C24.0205 22.0457 24.6865 22.2509 25.3718 22.3752C23.9298 22.8537 22.4971 23.3538 21.0661 23.8603C21.7679 23.0798 22.0553 22.0091 22.0102 20.9525L22.0134 20.9516ZM11.2328 23.2564C10.4369 22.5571 10.1415 21.6024 10.0343 20.5695C9.9802 20.0514 9.95207 19.5023 10.1411 19.008C10.3278 18.5177 10.6776 18.1106 11.0239 17.7285C12.4412 16.1672 14.8094 14.2016 16.9708 15.6389C17.1002 15.7243 17.2495 15.7561 17.3979 15.747C18.7773 16.7906 19.7899 18.2802 20.2127 19.9737C20.4146 20.7852 20.498 21.7936 20.0252 22.5329C19.8075 22.8701 19.4749 23.0869 19.1132 23.2464C18.5307 23.5033 17.8854 23.6671 17.2733 23.8392C15.3248 24.3857 12.8948 24.7116 11.2352 23.2523L11.2328 23.2564ZM47.3288 41.5391C47.4622 42.4654 47.701 43.5281 47.4912 44.4541C47.3223 45.2008 46.8645 45.8054 46.2955 46.3027C44.8428 47.5676 42.7183 47.8179 40.9156 48.2563C32.9009 50.196 25.0588 53.2713 16.7613 53.7821C15.3135 53.8705 13.2061 54.1712 12.1855 52.8555C11.6386 52.1509 11.432 51.2204 11.2006 50.3756C10.9222 49.3442 10.6494 48.3078 10.3934 47.2703C9.87367 45.1666 9.40188 43.0499 8.98618 40.9249C8.58941 38.9082 8.23421 36.8804 8.09549 34.8284C7.99277 33.3166 7.71551 31.1199 8.95909 29.9698C9.55759 29.4165 10.4058 29.191 11.168 28.9647C12.1994 28.6554 13.2282 28.3365 14.2486 27.9993C18.3216 26.656 22.3265 25.1112 26.4029 23.7808C28.408 23.1262 30.4333 22.5212 32.4848 22.026C33.5373 21.7694 34.5944 21.5425 35.661 21.3509C36.6099 21.1807 37.6032 21.0226 38.5676 21.1644C42.4136 21.7381 43.2297 26.0712 44.0101 29.2043C44.2658 30.2281 44.516 31.2568 44.7622 32.2832C44.8425 32.6189 45.0661 32.7991 45.3219 32.8572C46.2308 35.691 46.912 38.5966 47.3338 41.5447L47.3288 41.5391ZM46.7573 31.9097C46.4768 31.061 46.1643 30.2209 45.8399 29.3875C47.5996 27.3661 49.446 25.4245 51.3759 23.5634C52.8156 27.9447 54.419 32.2715 56.1707 36.5376C53.4741 35.6468 50.6359 35.2479 47.7865 35.4052C47.4829 34.2294 47.1441 33.0631 46.7614 31.912L46.7573 31.9097Z" fill="#0AE085"/>
<path d="M62.9187 17.1938C60.5159 18.777 58.1372 20.3984 55.7848 22.0539C55.4184 22.3108 55.2539 22.7814 55.4915 23.1915C55.7056 23.5529 56.2581 23.7441 56.6276 23.4863C58.9832 21.8299 61.3596 20.2125 63.7615 18.6261C64.6471 18.0435 63.8139 16.6085 62.9196 17.197L62.9187 17.1938Z" fill="#0AE085"/>
<path d="M70.3338 30.509C67.0204 30.8534 63.7029 31.1955 60.3894 31.5399C59.9451 31.5842 59.5587 31.8809 59.5559 32.3662C59.5532 32.7759 59.9342 33.247 60.3817 33.2018C63.6951 32.8574 67.0126 32.5153 70.3261 32.1709C70.7704 32.1266 71.1568 31.8298 71.1596 31.3445C71.1623 30.9349 70.7813 30.4638 70.3338 30.509Z" fill="#0AE085"/>
<path d="M69.385 21.7442C65.9697 22.9822 62.6009 24.3415 59.2792 25.8119C58.8689 25.9948 58.7798 26.5928 58.9859 26.9495C59.2342 27.3739 59.7108 27.424 60.122 27.2443C63.3091 25.8343 66.5441 24.5385 69.8182 23.349C70.2403 23.1973 70.525 22.7906 70.4014 22.3325C70.2925 21.9289 69.8081 21.5957 69.3859 21.7474L69.385 21.7442Z" fill="#0AE085"/>
</g>
<defs>
<clipPath id="clip0_91_293">
<rect width="66.1221" height="42.2056" fill="white" transform="translate(0.536133 17.229) rotate(-15.1036)"/>
</clipPath>
</defs>
</svg>
