<svg width="84" height="55" viewBox="0 0 84 55" fill="none" xmlns="http://www.w3.org/2000/svg">
<g clip-path="url(#clip0_91_298)">
<path d="M34.1507 13.5747C35.5151 14.458 36.8814 12.3375 35.5169 11.4541C33.3819 10.072 30.9208 8.98357 28.3803 8.66404C28.367 8.05254 28.3587 7.44126 28.3452 6.8348C28.33 6.15254 27.8517 5.55074 27.1412 5.51927C26.4912 5.49048 25.8105 6.04094 25.8257 6.72321C25.8381 7.35486 25.8505 7.98652 25.8629 8.61817C25.5029 8.65272 25.1423 8.70238 24.7807 8.77219C24.7702 8.21131 24.7648 7.65064 24.7794 7.09087C24.8158 5.47181 22.2966 5.35517 22.26 6.97928C22.2413 7.85695 22.2581 8.73114 22.29 9.60601C19.2551 11.1024 16.454 14.2701 17.9976 17.7212C18.8153 19.5498 20.6633 20.6868 22.4494 21.3971C22.6132 21.4598 22.7773 21.5176 22.9415 21.5703C22.9578 24.9639 22.8372 28.3715 22.6469 31.7559C22.5969 32.6574 22.532 33.5533 22.4567 34.4537C22.3239 34.4882 22.1911 34.5227 22.0583 34.5572C19.7831 35.0875 17.4485 35.0195 15.3002 34.0509C14.6815 33.771 13.9022 34.2666 13.7091 34.8639C13.4809 35.5708 13.8987 36.1699 14.5222 36.455C16.9723 37.5632 19.6255 37.6201 22.1934 37.0927C22.1286 37.6452 22.0536 38.1972 21.9734 38.7541C21.8728 39.4312 22.5475 40.0417 23.1774 40.0696C23.9181 40.1024 24.3922 39.5428 24.4929 38.8657C24.6156 38.033 24.7184 37.1944 24.8058 36.3602C25.0829 36.2614 25.3601 36.1575 25.6375 36.0486C25.6505 36.7813 25.6839 37.5098 25.7677 38.2405C25.8436 38.9204 26.6688 39.3256 27.2806 39.1911C28.0099 39.0265 28.302 38.3578 28.2312 37.6782C28.1309 36.7498 28.1117 35.8149 28.1278 34.8816C29.4636 34.1329 30.6924 33.1776 31.5665 31.9086C32.7591 30.1742 33.1081 27.9934 32.8561 25.9324C32.618 24.0134 31.7145 22.07 29.9597 21.1087C29.5061 20.8614 29.0252 20.6634 28.5378 20.4954C28.5379 17.4156 28.5027 14.3343 28.4472 11.2571C30.4722 11.5891 32.4619 12.4901 34.1649 13.5955L34.1507 13.5747ZM20.1644 16.3328C19.7231 14.7835 21.2079 13.1781 22.3886 12.3973C22.4094 12.3831 22.4352 12.3691 22.4561 12.3549C22.6175 14.5229 22.8296 16.6882 22.9001 18.8573C21.7063 18.3399 20.5137 17.5651 20.1644 16.3328ZM25.0546 33.5943C25.2239 31.2541 25.3127 28.9053 25.3815 26.5556C25.4251 25.1135 25.4436 23.6704 25.4415 22.2364C25.6314 22.2802 25.8163 22.3237 26.0062 22.3675C26.0035 22.4279 26.0061 22.4836 26.0085 22.5443C25.9895 25.1385 25.935 27.7363 25.8304 30.3267C25.7862 31.3245 25.7322 32.3167 25.688 33.3144C25.4817 33.4113 25.2707 33.5029 25.0546 33.5943ZM30.4177 27.1825C30.4022 29.0146 29.6569 30.5669 28.2778 31.7226C28.3107 31.2091 28.3385 30.6953 28.356 30.1862C28.4493 27.8527 28.4919 25.522 28.5144 23.1904C29.9559 23.9308 30.4306 25.6382 30.4177 27.1825ZM25.409 19.6651C25.3658 17.7901 25.2723 15.9128 25.1132 14.0327C25.037 13.1306 24.9661 12.2237 24.9053 11.3173C25.2368 11.2411 25.5727 11.1802 25.9126 11.1448C25.9666 14.0301 26.0001 16.9195 26.0035 19.8076C25.8035 19.7634 25.6037 19.7141 25.409 19.6651Z" fill="#0AE085"/>
<path d="M74.6999 16.1481C74.2698 15.5989 73.8139 15.0638 73.3522 14.5435C73.0552 14.182 72.7424 13.8349 72.4134 13.5123C72.4085 13.5071 72.3989 13.4965 72.3941 13.4913C72.3748 13.4702 72.3551 13.4593 72.3356 13.4432C69.4936 10.697 65.5226 9.27407 61.5954 9.02944C56.3891 8.70796 51.3005 10.5173 46.7292 12.8443C46.3108 13.058 45.8972 13.2769 45.4785 13.4957C44.3435 11.537 43.0052 9.72069 41.5415 7.99984C41.5225 7.97375 41.5085 7.94789 41.4895 7.9218C41.1458 7.47238 40.765 7.06675 40.3784 6.67601C40.3591 6.65496 40.3398 6.63391 40.3206 6.61287C40.2917 6.58129 40.2573 6.55957 40.2282 6.53304C35.9255 2.33874 29.2111 1.41528 23.4865 2.65113C20.0404 3.39719 16.766 4.8274 13.6687 6.4775C10.7007 8.0576 7.63044 9.77958 5.4398 12.3887C3.15333 15.1098 2.33151 18.6176 1.79611 22.0423C1.24773 25.532 1.33123 29.0042 2.66436 32.3046C4.93004 37.9183 10.1633 41.962 15.7224 44.0056C19.5924 45.4291 23.742 46.0118 27.8419 46.2338C29.8566 46.3432 31.8751 46.367 33.8949 46.3605C35.7835 46.3533 37.6984 46.322 39.5492 45.9142C40.5144 46.8052 41.5589 47.6188 42.6581 48.334C47.0013 51.1568 52.1466 52.3995 57.2438 52.903C59.9884 53.176 62.7474 53.2376 65.4992 53.2333C68.15 53.2295 70.8617 53.2183 73.3731 52.2592C77.5483 50.667 79.9882 46.534 81.0057 42.3683C83.2332 33.2276 80.4057 23.4288 74.6951 16.1429L74.6999 16.1481ZM29.5811 43.7864C26.1833 43.6712 22.7685 43.3685 19.4686 42.5256C14.0969 41.1517 8.88093 38.1993 5.9771 33.3147C4.51118 30.8465 3.864 28.1319 3.98618 25.2595C4.0605 23.5815 4.31163 21.9013 4.66198 20.2608C4.98614 18.7554 5.39753 17.2186 6.11924 15.8571C7.56286 13.129 10.1038 11.3886 12.7098 9.88843C15.4973 8.28015 18.4011 6.78304 21.4738 5.80334C24.6847 4.77928 28.1045 4.2845 31.4493 4.91229C34.1633 5.42126 36.7406 6.62091 38.6839 8.57001C39.6707 9.65882 40.6318 10.7566 41.498 11.9461C41.5503 12.0191 41.6026 12.0921 41.6549 12.1651C41.6692 12.1859 41.6836 12.2017 41.6882 12.212C41.688 12.2171 41.6928 12.2223 41.7026 12.2278C41.8164 12.3944 41.9304 12.556 42.0442 12.7226C42.2668 13.0556 42.4843 13.3883 42.6913 13.7307C42.8939 14.0578 43.0864 14.3844 43.2787 14.716C42.2055 15.3501 41.1608 16.0258 40.1635 16.7692C38.0695 18.3375 36.447 20.3155 35.4313 22.7293C34.3985 25.1878 33.9228 27.9486 33.6494 30.5872C33.3862 33.11 33.5138 35.7007 34.3409 38.1153C35.0427 40.1659 36.1211 42.0363 37.4663 43.6964C36.548 43.7971 35.6278 43.827 34.6984 43.8363C32.9912 43.8516 31.2852 43.8417 29.5811 43.7864ZM79.1169 38.392C78.8201 42.0141 77.6792 46.0026 74.8583 48.4778C73.2457 49.8907 71.1904 50.4712 69.0828 50.6353C66.5852 50.8276 64.039 50.7502 61.5387 50.6597C54.3098 50.4101 46.226 48.9414 40.9246 43.8142C40.8213 43.638 40.6812 43.4955 40.5089 43.3969C39.616 42.4688 38.8035 41.4331 38.1027 40.2712C37.0871 38.5803 36.4109 36.7479 36.1494 34.7874C35.8203 32.2989 36.2037 29.6855 36.7157 27.2443C37.1952 24.9683 37.9172 22.6879 39.4265 20.8716C40.8557 19.1526 42.7834 17.9203 44.7005 16.8137C44.9802 16.6544 45.2599 16.4951 45.5396 16.3358C45.5499 16.3313 45.5652 16.3269 45.5755 16.3223C45.5858 16.3177 45.5913 16.3078 45.6016 16.3032C49.5212 14.0989 53.6949 12.1985 58.1931 11.6354C62.1633 11.1398 66.4329 11.9751 69.6514 14.43C69.9785 14.6818 70.2846 14.9529 70.5797 15.2436C70.9028 15.5861 71.2156 15.9332 71.5231 16.2851C71.5805 16.3583 71.6431 16.4267 71.7004 16.5C71.7146 16.5208 71.7344 16.5317 71.7488 16.5475C74.1495 19.3398 76.1103 22.4913 77.4111 25.9519C78.8968 29.9103 79.4546 34.1862 79.1068 38.3916L79.1169 38.392Z" fill="#0AE085"/>
<path d="M67.5907 18.3274C65.4556 16.9454 62.9946 15.8569 60.454 15.5374C60.4407 14.9259 60.4324 14.3146 60.4189 13.7082C60.4037 13.0259 59.9255 12.4241 59.215 12.3927C58.5649 12.3639 57.8842 12.9143 57.8994 13.5966C57.9118 14.2282 57.9243 14.8599 57.9367 15.4916C57.5767 15.5261 57.216 15.5758 56.8544 15.6456C56.8439 15.0847 56.8385 14.524 56.8532 13.9643C56.8895 12.3452 54.3703 12.2286 54.3337 13.8527C54.315 14.7303 54.3318 15.6045 54.3638 16.4794C51.3288 17.9757 48.5277 21.1435 50.0713 24.5946C50.889 26.4232 52.737 27.5602 54.5231 28.2704C54.6869 28.3332 54.851 28.391 55.0153 28.4437C55.0316 31.8372 54.9109 35.2449 54.7206 38.6293C54.6706 39.5308 54.6057 40.4266 54.5305 41.3271C54.3977 41.3616 54.2649 41.3961 54.1321 41.4306C51.8568 41.9609 49.5222 41.8928 47.3739 40.9242C46.7552 40.6444 45.9759 41.14 45.7829 41.7373C45.5546 42.4441 45.9724 43.0433 46.5959 43.3284C49.046 44.4366 51.6992 44.4935 54.2672 43.966C54.2023 44.5185 54.1274 45.0706 54.0472 45.6275C53.9465 46.3046 54.6212 46.9151 55.2511 46.943C55.9918 46.9758 56.466 46.4162 56.5666 45.739C56.6894 44.9064 56.7921 44.0678 56.8796 43.2335C57.1566 43.1347 57.4338 43.0309 57.7113 42.922C57.7243 43.6547 57.7576 44.3832 57.8414 45.1139C57.9173 45.7938 58.7425 46.1989 59.3543 46.0645C60.0836 45.8999 60.3758 45.2312 60.3049 44.5515C60.2046 43.6232 60.1855 42.6883 60.2016 41.755C61.5373 41.0063 62.7661 40.051 63.6402 38.782C64.8328 37.0476 65.1819 34.8668 64.9298 32.8058C64.6917 30.8868 63.7882 28.9433 62.0334 27.9821C61.5799 27.7348 61.0989 27.5368 60.6116 27.3688C60.6117 24.289 60.5765 21.2076 60.5209 18.1304C62.5459 18.4625 64.5357 19.3635 66.2387 20.4689C67.6031 21.3523 68.9693 19.2317 67.6049 18.3483L67.5907 18.3274ZM52.2381 23.2062C51.7968 21.6569 53.2816 20.0515 54.4623 19.2707C54.4831 19.2565 54.509 19.2425 54.5298 19.2283C54.6913 21.3963 54.9033 23.5616 54.9739 25.7306C53.78 25.2133 52.5875 24.4385 52.2381 23.2062ZM57.1233 40.4675C57.2925 38.1273 57.3814 35.7784 57.4502 33.4287C57.4938 31.9867 57.5123 30.5435 57.5152 29.1098C57.7052 29.1536 57.89 29.1971 58.08 29.2408C58.0773 29.3013 58.0799 29.357 58.0822 29.4176C58.0632 32.0119 58.0088 34.6097 57.9041 37.2001C57.8599 38.1978 57.8059 39.1901 57.7617 40.1878C57.5555 40.2847 57.3444 40.3763 57.1283 40.4677L57.1233 40.4675ZM62.4862 34.0607C62.4706 35.8928 61.7253 37.4451 60.3463 38.6008C60.3792 38.0873 60.407 37.5735 60.4245 37.0644C60.5177 34.7309 60.5604 32.4002 60.5829 30.0686C62.0243 30.809 62.499 32.5164 62.4862 34.0607ZM57.4825 26.5435C57.4393 24.6685 57.3458 22.7912 57.1867 20.9111C57.1105 20.009 57.0396 19.1021 56.9788 18.1957C57.3103 18.1195 57.6463 18.0586 57.9861 18.0232C58.0401 20.9085 58.0736 23.7979 58.077 26.686C57.877 26.6418 57.6772 26.5926 57.4825 26.5435Z" fill="#0AE085"/>
</g>
<defs>
<clipPath id="clip0_91_298">
<rect width="80.7073" height="49.5411" fill="white" transform="translate(2.56226 0.987305) rotate(2.53611)"/>
</clipPath>
</defs>
</svg>
