<svg width="12" height="13" viewBox="0 0 12 13" fill="none" xmlns="http://www.w3.org/2000/svg">
<g clip-path="url(#clip0_285_1236)">
<path d="M9.11729 6.97485C9.92245 6.80886 10.7279 6.64347 11.5326 6.47559C11.5609 6.46976 11.5955 6.44382 11.6071 6.41861C11.8017 5.99295 11.9273 5.54849 11.9851 5.0861C11.9878 5.06497 11.995 5.04442 12.0001 5.02358V4.97987C11.9833 4.98439 11.9666 4.98992 11.9495 4.99342C10.9853 5.19248 10.021 5.39154 9.05677 5.59046C8.86471 5.63009 8.67236 5.66886 8.46679 5.71082V0.678059C8.4315 0.696129 8.40912 0.706621 8.3878 0.718717C7.90548 0.99472 7.48323 1.33994 7.11834 1.75205C7.07659 1.79927 7.05962 1.84663 7.05977 1.90885C7.06142 3.24574 7.06052 4.58277 7.06233 5.91965C7.06233 5.98217 7.04506 6.00694 6.97989 6.01932C6.72521 6.06771 6.47189 6.1225 6.21797 6.17496C6.03057 6.21372 5.84317 6.25249 5.64285 6.29387V0C5.62393 0.00495466 5.61627 0.00553756 5.61026 0.00888924C5.09266 0.295968 4.64398 0.662758 4.26362 1.10795C4.2441 1.13083 4.23674 1.16974 4.23659 1.20121C4.23464 1.51423 4.23539 1.82725 4.23539 2.14027C4.23539 3.59373 4.23539 5.04705 4.23554 6.50051C4.23554 6.54714 4.24109 6.58503 4.17172 6.59917C3.16293 6.80478 2.15505 7.01419 1.14657 7.22083C1.09701 7.23103 1.06998 7.24983 1.04956 7.29573C0.902705 7.62653 0.795189 7.96869 0.726715 8.32237C0.702089 8.44958 0.687373 8.5787 0.666351 8.71859C1.86404 8.47159 3.04461 8.22823 4.23524 7.98283C4.23524 8.01897 4.23524 8.04505 4.23524 8.07114C4.23524 8.60245 4.23358 9.13391 4.23719 9.66522C4.23764 9.73313 4.21482 9.75587 4.1507 9.76913C2.92493 10.0205 1.69961 10.2741 0.473693 10.5249C0.424591 10.5349 0.402667 10.5563 0.384197 10.5977C0.238691 10.9237 0.131926 11.2612 0.0639029 11.6099C0.0382253 11.742 0.0218577 11.8756 -0.000366211 12.0178C0.0409282 12.0107 0.0676569 12.0067 0.0940853 12.0013C1.37586 11.7374 2.65734 11.4713 3.93987 11.2105C4.31918 11.1333 4.6153 10.9476 4.82882 10.6324C5.04566 10.3124 5.267 9.995 5.49104 9.6795C5.59555 9.53232 5.6466 9.37508 5.6451 9.1957C5.6412 8.72501 5.64375 8.25431 5.64375 7.78362V7.69225C6.11676 7.59476 6.58361 7.49844 7.06188 7.39993V10.1971C7.09821 10.191 7.12494 10.1875 7.15122 10.1821C7.72499 10.0641 8.29876 9.94574 8.87237 9.82742C9.75367 9.6457 10.635 9.46339 11.5166 9.28284C11.5676 9.27235 11.5972 9.25195 11.6184 9.20327C11.7534 8.89186 11.8606 8.57228 11.9256 8.24018C11.952 8.10509 11.9752 7.96927 11.9998 7.8339V7.79018C11.7897 7.83142 11.5793 7.87106 11.3696 7.91419C10.4253 8.10873 9.48143 8.3043 8.53721 8.49928C8.51829 8.50321 8.49862 8.50321 8.47429 8.50569V7.1092C8.68917 7.06447 8.903 7.01958 9.11714 6.97543L9.11729 6.97485Z" fill="#07AE68"/>
<path d="M7.54203 11.5032C7.49128 11.5137 7.46155 11.5337 7.44007 11.5825C7.30177 11.8978 7.19576 12.2227 7.12894 12.559C7.10041 12.7031 7.08149 12.849 7.05731 13C7.08239 12.996 7.092 12.995 7.10161 12.9931C7.85797 12.837 8.61434 12.6807 9.3707 12.5248C10.0882 12.377 10.8058 12.2301 11.5227 12.0804C11.5537 12.0739 11.5935 12.0498 11.6057 12.0236C11.7402 11.7336 11.8425 11.4325 11.9087 11.1208C11.9434 10.9576 11.9698 10.7927 12 10.6284V10.5847C11.9829 10.5885 11.9659 10.5923 11.9488 10.5958C10.4799 10.8985 9.01106 11.2013 7.54188 11.5029L7.54203 11.5032Z" fill="#07AE68"/>
</g>
<defs>
<clipPath id="clip0_285_1236">
<rect width="12" height="13" fill="white"/>
</clipPath>
</defs>
</svg>
