<svg width="37" height="56" viewBox="0 0 37 56" fill="none" xmlns="http://www.w3.org/2000/svg">
<g clip-path="url(#clip0_129_128)">
<path d="M33.055 28.7228C33.0627 28.6458 33.0638 28.5698 33.0457 28.4833C32.1114 23.1616 31.2074 17.8348 30.2059 12.5244C29.445 8.47867 28.7183 1.26924 23.1116 1.52129C21.8732 1.57834 20.6281 1.76048 19.397 1.90238C18.1424 2.04825 16.8901 2.20751 15.64 2.40082C13.1875 2.78287 10.7592 3.30892 8.40071 4.08495C7.2181 4.47353 6.05518 4.938 4.93661 5.4811C3.90767 5.98155 2.66973 6.51375 2.26075 7.67776C2.07191 8.21924 2.06971 8.78095 2.09889 9.34426C2.13268 10.017 2.19112 10.6925 2.25909 11.3629C2.38884 12.6876 2.56958 14.0071 2.77106 15.3266C3.35684 19.1332 4.03059 22.9284 4.71107 26.7225C4.70331 26.7996 4.70227 26.8755 4.72029 26.962C5.65459 32.2837 6.55863 37.6105 7.56016 42.9209C8.32105 46.9667 9.04777 54.1761 14.6544 53.924C15.8929 53.867 17.1379 53.6848 18.369 53.5429C19.6236 53.3971 20.876 53.2378 22.126 53.0445C24.5786 52.6625 27.0068 52.1364 29.3653 51.3604C30.5479 50.9718 31.7109 50.5073 32.8294 49.9642C33.8584 49.4638 35.0963 48.9316 35.5053 47.7676C35.6941 47.2261 35.6963 46.6644 35.6671 46.1011C35.6334 45.4283 35.5749 44.7529 35.5069 44.0824C35.3772 42.7578 35.1965 41.4382 34.995 40.1188C34.4092 36.3122 33.7354 32.5169 33.055 28.7228ZM33.8998 45.1934C33.9707 46.0458 34.2504 47.1731 33.4211 47.7294C32.4674 48.3687 31.3123 48.8181 30.2491 49.2382C25.8791 50.9626 21.1544 51.5448 16.5119 52.0408C15.4864 52.1516 14.2482 52.4565 13.2503 52.0942C12.3959 51.7835 11.7411 51.0363 11.297 50.2674C10.1471 48.2639 9.85036 45.8654 9.42261 43.6335C8.74974 40.1309 8.13008 36.6158 7.51379 33.1002C7.53218 33.0041 7.53543 32.9002 7.51626 32.7864C6.63383 27.7521 5.74075 22.7161 4.87792 17.6751C4.45666 15.2149 4.06453 12.7428 3.85956 10.2531C3.7886 9.40062 3.50887 8.2734 4.33824 7.71702C5.29194 7.07772 6.44703 6.62834 7.51025 6.20821C11.8802 4.48387 16.605 3.90166 21.2475 3.40562C22.2729 3.2949 23.5111 2.98995 24.509 3.35222C25.3634 3.66291 26.0182 4.41013 26.4623 5.17906C27.6122 7.18254 27.909 9.58109 28.3367 11.813C29.0096 15.3156 29.6292 18.8307 30.2455 22.3463C30.2271 22.4424 30.2239 22.5462 30.2431 22.6601C31.1255 27.6944 32.0186 32.7303 32.8814 37.7714C33.3027 40.2316 33.6948 42.7036 33.8998 45.1934Z" fill="#0AE085"/>
<path d="M26.7197 48.3381C23.7247 48.6806 20.8086 49.5127 17.8107 49.8385C17.3725 49.8847 17.4893 50.5573 17.9235 50.5083C20.9214 50.1824 23.8375 49.3504 26.8325 49.0078C27.2701 48.9582 27.154 48.289 26.7197 48.3381Z" fill="#0AE085"/>
<path d="M12.7444 8.73265L17.3098 7.96375C17.8376 7.87486 18.264 7.32779 18.1491 6.78925C18.0337 6.24736 17.5362 5.85935 16.9714 5.95447L12.406 6.72336C11.8781 6.81226 11.4517 7.35932 11.5666 7.89786C11.6821 8.43975 12.1796 8.82777 12.7444 8.73265Z" fill="#0AE085"/>
</g>
<g clip-path="url(#clip1_129_128)">
<path d="M12.8806 19.901C15.5453 21.4439 18.2836 21.9846 20.9977 22.7224C22.7165 23.1911 24.4356 23.7415 26.1511 24.3744C26.8081 24.617 27.0337 26.0557 26.4815 26.4822C22.6374 29.4506 18.4827 31.6783 15.1261 35.7163C14.7644 36.1506 14.183 35.7704 14.0183 34.9839C13.4124 32.0916 12.8067 29.2007 12.2008 26.3084C11.793 24.3653 11.3844 22.4166 11.0429 20.4559C10.9007 19.6361 11.3209 18.9935 11.8201 19.2753C12.1749 19.4742 12.5285 19.6974 12.8808 19.9023L12.8806 19.901Z" fill="#0AE085"/>
</g>
<defs>
<clipPath id="clip0_129_128">
<rect width="27.7169" height="51.0243" fill="white" transform="translate(0.978271 4.8667) rotate(-9.55986)"/>
</clipPath>
<clipPath id="clip1_129_128">
<rect width="14.7606" height="16.996" fill="white" transform="translate(10.8621 19.3174) rotate(-9.0436)"/>
</clipPath>
</defs>
</svg>
